<?xml version="1.0" encoding="UTF-8"?>
<!DOCTYPE svg PUBLIC "-//W3C//DTD SVG 1.1//EN" "http://www.w3.org/Graphics/SVG/1.1/DTD/svg11.dtd">
<!-- Creator: CorelDRAW -->
<svg xmlns="http://www.w3.org/2000/svg" xml:space="preserve" width="208px" height="208px" version="1.1" style="shape-rendering:geometricPrecision; text-rendering:geometricPrecision; image-rendering:optimizeQuality; fill-rule:evenodd; clip-rule:evenodd"
viewBox="0 0 11.92 11.92"
 xmlns:xlink="http://www.w3.org/1999/xlink"
 xmlns:xodm="http://www.corel.com/coreldraw/odm/2003">
 <defs>
  <style type="text/css">
   <![CDATA[
    .fil1 {fill:none}
    .fil0 {fill:black}
     @media (prefers-color-scheme: dark){
    .fil1 {fill:none}
    .fil0 {fill:white}
        }
   ]]>
  </style>
 </defs>
 <g id="圖層_x0020_1">
  <metadata id="CorelCorpID_0Corel-Layer"/>
  <g id="_105553198626688">
   <path class="fil0" d="M9.31 6.59c0.36,0 0.21,0.48 0.14,0.69 -0.07,0.23 -0.13,0.52 -0.33,0.67 -0.19,0.14 -0.15,0.1 -0.1,-0.14 0.02,-0.13 0.05,-0.3 0.07,-0.43 0.02,-0.08 0.2,-0.77 0.22,-0.79zm0.05 -0.24c0,-0.03 0.02,-0.14 0.03,-0.16 0.03,0.01 0.14,0.18 0.15,0.21 -0.02,0 -0.16,-0.04 -0.18,-0.05zm-4.1 4.16c0.09,0.3 0.21,0.31 0.38,0.52 0.21,0.25 0.31,0.24 0.65,0.25 0.18,0 0.55,-0.11 0.72,-0.19 0.36,-0.16 0.24,-0.23 0.38,-0.51 0.11,-0.22 0.24,-0.22 0.37,-0.54 0.12,-0.29 0.23,-0.28 0.41,-0.49 0.33,-0.36 0.53,-0.64 0.71,-1.1 0.09,-0.23 0.52,-0.43 0.76,-1.04 0.15,-0.35 0.09,-0.42 0.14,-0.75 0.05,-0.38 0.18,-0.25 -0.1,-0.63 -0.26,-0.37 -0.24,-0.09 -0.13,-0.61 0.02,-0.12 0.06,-0.27 0.08,-0.38 0.02,-0.19 -0.15,-0.24 -0.18,-0.18 -0.05,0.09 -0.01,0.3 -0.06,0.39 -0.03,0.06 -0.07,0.05 -0.09,0.14 -0.01,0.07 -0.02,0.12 -0.04,0.18 -0.02,0.11 -0.08,0.72 -0.14,0.76 -0.04,0.02 -0.12,-0.01 -0.18,0.01 -0.05,0.02 -0.13,0.04 -0.17,0.04 -0.08,0.01 -0.25,0.07 -0.33,0.09 -0.15,0.04 -0.5,0.1 -0.55,0.27 -0.06,0.2 0.12,0.12 0.2,0.07 0.18,-0.1 0.82,-0.26 0.99,-0.24 0,0.17 -0.11,0.46 -0.16,0.63 -0.03,0.09 -0.12,0.58 -0.12,0.68 -0.03,0.35 0,0.34 -0.34,0.47 -0.13,0.04 -0.53,0.17 -0.64,0.06 -0.04,-0.13 -0.02,-0.85 0.01,-0.99 0.02,-0.08 0.07,-0.42 0.01,-0.47 -0.18,-0.16 -0.2,0.14 -0.22,0.25 -0.06,-0.01 -0.12,-0.07 -0.21,-0.05 -0.08,0.01 -0.16,0.02 -0.24,0.02 -0.18,0.01 -0.36,0.13 -0.39,0.13 -0.04,-0.08 0.03,-0.23 -0.17,-0.27 -0.03,0 -0.35,-0.09 -0.35,-0.09 0.02,-0.06 0.15,-0.06 0.09,-0.2 -0.06,-0.12 -0.13,-0.1 -0.17,-0.14 -0.1,-0.1 0.02,-0.1 -0.19,-0.13 -0.13,-0.02 -0.15,-0.03 -0.28,-0.02 -0.13,0 -0.49,0.01 -0.58,0.04 -0.07,0.01 -0.5,0.1 -0.32,0.25 0,0 0.63,0 0.73,0.02 0.2,0.03 0.52,0 0.66,0.15 -0.1,0.02 -0.24,0 -0.35,0.01 -0.09,0 -0.22,0.04 -0.31,0.04 -0.15,0 -0.44,0.08 -0.6,0.11 -0.22,0.04 -0.33,0.02 -0.48,0.22 -0.04,0.05 -0.12,0.18 -0.15,0.21 -0.19,0.14 -0.39,-0.45 -0.52,-0.56 -0.67,-0.62 0.75,-0.94 0.46,-1.3 -0.14,-0.07 -0.2,0.06 -0.26,0.15 -0.06,0.08 -0.13,0.15 -0.2,0.22 -0.07,0.07 -0.31,0.44 -0.37,0.47 -0.04,-0.02 -0.18,-0.2 -0.21,-0.25 0,-0.01 -0.03,-0.34 -0.04,-0.39 -0.02,-0.14 -0.09,-0.69 -0.34,-0.51l-0.02 0c0.17,0.56 0.26,0.56 -0.21,0.55 -0.08,0 -0.09,0 -0.16,0.03 -0.15,0.07 -0.3,0.3 -0.37,0.44 -0.14,0.29 0.01,0.33 0.1,0.58 0.03,0.06 0.11,0.2 0.15,0.26 0.06,0.09 0.06,0.19 0.12,0.28 0.06,0.1 0.19,0.14 0.27,0.05 0.08,-0.07 -0.03,-0.15 -0.09,-0.23 -0.12,-0.15 -0.19,-0.35 -0.28,-0.52 -0.18,-0.33 -0.13,-0.25 0.03,-0.54 0.15,-0.26 0.29,-0.18 0.48,-0.01 0.08,0.06 0.61,0.77 0.66,0.85 0.08,0.12 0.25,0.35 0.34,0.46 0.08,0.11 0.14,0.11 0.23,0.17 0.11,0.07 0.09,0.16 0.15,0.26 0.14,0.27 0.11,0.35 0.19,0.62 0.04,0.14 0.3,0.32 0.44,0.36 0.28,0.08 1.19,0.07 1.28,-0.27 -0.16,-0.04 -0.48,0.07 -0.71,0.08 -0.13,0 -0.29,0 -0.41,-0.01 -0.09,-0.01 -0.19,-0.09 -0.28,-0.13 -0.19,-0.07 -0.17,-0.46 -0.2,-0.62 -0.06,-0.31 -0.09,-0.37 0.13,-0.6 0.15,-0.16 1.17,-0.27 1.4,-0.25 0.28,0.03 0.42,-0.08 0.45,0.31 0.01,0.09 -0.03,0.73 -0.02,0.74 0.06,0 0.17,-0.23 0.19,-0.29 0.06,-0.12 0.08,-0.38 0.09,-0.4l0 -0.03 0.8 -0.17 -0.02 0.97 -0.02 0.02 -0.14 -0.18 0.02 -0.02c-0.15,0 -0.05,0.46 -0.03,0.55 0.04,0.2 -0.47,0.11 -0.46,0.2l0.1 0.05 0 0.04 -0.35 0.06 0 0.03c-0.11,0 -0.16,-0.06 -0.22,-0.15 -0.1,-0.12 -0.19,-0.04 -0.16,0.08 0.02,0.08 0.06,0.19 0.15,0.23 0.2,0.08 0.21,-0.06 0.25,-0.09 0.04,0 0.07,0.16 0.33,0.07 0.13,-0.04 0.18,-0.2 0.22,-0.22 0.08,-0.01 0.23,0.07 0.31,-0.06 0.12,-0.2 -0.02,-0.25 0,-0.3 0.05,0 0.06,0.06 0.1,0.08 0.05,0.03 0.1,0 0.15,0.01 0.14,0.03 0.18,0.03 0.32,0 0.11,-0.02 0.18,-0.03 0.28,-0.07 0.07,-0.03 0.2,-0.1 0.25,-0.11 -0.06,0.28 -0.4,0.83 -0.59,1.04 -0.14,0.15 -0.28,0.26 -0.39,0.43 -0.04,0.07 -0.1,0.19 -0.14,0.27 -0.07,0.14 -0.15,0.08 -0.21,0.17 -0.08,0.13 -0.19,0.45 -0.33,0.49 -0.24,0.07 -0.4,0.13 -0.66,0.15 -0.15,0.01 -0.18,-0.07 -0.3,-0.1 -0.14,-0.03 -0.2,0.03 -0.33,-0.07 -0.1,-0.07 -0.38,-0.34 -0.45,-0.36z"/>
   <path class="fil0" d="M4.45 1.67c-0.2,-0.24 -0.67,0.16 -0.85,0.3 -0.27,0.22 -0.44,0.43 -0.63,0.71 -0.27,0.39 -0.32,0.54 -0.32,1.02 0,0.22 -0.1,1.13 -0.05,1.27 0.03,0.09 0.13,0.13 0.19,0.04 0.05,-0.08 0.03,-0.22 0.02,-0.31 -0.01,-0.19 0.01,-0.45 0.03,-0.64 0.07,-0.51 -0.08,-0.64 0.21,-1.12 0.17,-0.28 0.37,-0.52 0.61,-0.74 0.28,-0.26 0.53,-0.33 0.79,-0.53z"/>
   <path class="fil0" d="M4.59 1.43c0.18,0.1 0.68,-0.21 0.94,-0.24 0.36,-0.05 0.72,-0.15 1.09,-0.1 0.24,0.03 0.83,0.07 0.96,0.26 0.1,0.13 0.35,-0.01 0.45,-0.06 0.28,-0.12 0.03,-0.27 -0.14,-0.2 -0.07,0.03 -0.15,0.13 -0.18,0.03 -0.06,-0.15 -0.06,-0.02 -0.07,-0.23 -0.03,-0.32 -0.28,-0.27 -0.29,-0.14 0,0.07 0.09,0.2 -0.03,0.22 -0.04,0 -0.2,-0.03 -0.26,-0.04 -0.41,-0.05 -0.72,-0.1 -1.12,0 -0.19,0.05 -0.34,0.07 -0.52,0.1 -0.18,0.04 -0.29,0.09 -0.46,0.16 -0.1,0.04 -0.38,0.1 -0.37,0.24z"/>
   <path class="fil0" d="M9.36 2.62c0.18,0.32 0.19,0.45 0.27,0.79 0.04,0.16 0.06,0.31 0.06,0.47 -0.01,0.14 0.04,0.4 0.17,0.14 0.12,-0.22 -0.01,-0.69 -0.05,-0.93 -0.06,-0.29 -0.17,-0.49 -0.32,-0.74 -0.09,-0.15 -0.36,-0.45 -0.5,-0.56 -0.17,-0.13 -0.61,-0.34 -0.78,-0.14 0.1,0.08 0.23,0.09 0.36,0.17 0.14,0.08 0.19,0.1 0.32,0.21 0.16,0.14 0.37,0.41 0.47,0.59z"/>
   <path class="fil0" d="M3.28 8.97c0.07,0.39 0.14,0.47 0.4,0.76 0.21,0.24 1.53,0.96 1.38,0.75 -0.05,-0.08 -0.57,-0.41 -0.68,-0.49 -0.24,-0.16 -0.44,-0.31 -0.64,-0.52 -0.25,-0.25 -0.35,-0.41 -0.4,-0.77 -0.03,-0.19 0,-0.32 -0.06,-0.52 -0.01,-0.02 -0.16,-0.47 -0.16,-0.21 0,0.02 0.09,0.37 0.1,0.47 0.02,0.21 0.02,0.32 0.06,0.53z"/>
   <path class="fil0" d="M9.05 4.54c0.06,0 0.05,0.2 0.11,0.25 0.04,0.06 0.21,0.02 0.21,-0.11 0,-0.06 -0.23,-0.44 -0.38,-0.24 -0.22,0.29 0.05,-0.31 -0.25,-0.26 -0.19,0.04 -0.06,0.16 -0.05,0.21 0,0.07 0.04,0.32 -0.06,0.2l0.02 -0.23 -0.02 0c-0.16,-0.08 -0.18,0.17 -0.2,0.27 -0.02,0.11 -0.12,0.28 -0.03,0.38 0.01,0 0.23,-0.02 0.26,-0.04 0.08,-0.05 0.04,-0.2 0.06,-0.25 0.07,0.05 0.04,0.2 0.23,0.12 0.14,-0.06 0.03,-0.25 0.1,-0.3z"/>
   <path class="fil0" d="M5.79 7.64c0.01,-0.05 0.07,-0.06 0.04,-0.13 -0.02,-0.06 -0.07,-0.08 0.06,-0.08 0.06,0.01 0.3,-0.04 0.16,-0.15 -0.08,-0.07 -0.54,-0.08 -0.65,-0.06 -0.36,0.07 -0.4,0.33 -0.18,0.26 0.05,-0.02 0.29,-0.08 0.31,-0.05 0.01,0.01 -0.05,0.05 -0.05,0.13 0.01,0.07 0.06,0.09 0.05,0.13 -0.02,0 -0.51,-0.05 -0.3,0.12 0.1,0.08 0.34,0.07 0.46,0.05 0.12,-0.02 0.27,-0.09 0.35,-0.19 0.05,-0.07 0,-0.17 -0.08,-0.13 -0.05,0.02 -0.1,0.11 -0.17,0.1z"/>
   <path class="fil0" d="M7.02 5.19c-0.02,-0.1 0.05,-0.34 -0.04,-0.42 -0.04,-0.04 -0.14,-0.03 -0.16,0.02 -0.01,0.02 -0.01,0.18 -0.01,0.22 -0.01,0.14 -0.04,0.75 0.21,0.67 0.15,-0.05 0.12,-0.2 0.09,-0.32 -0.02,-0.15 0.03,-0.2 0.11,-0.33 0.08,-0.14 0.08,0.23 0.09,0.28 0.02,0.1 0.07,0.26 0.14,0.33 0.12,0.02 0.28,-0.09 0.12,-0.23 -0.05,-0.04 -0.08,-0.29 -0.11,-0.37 -0.17,-0.52 -0.41,0.14 -0.44,0.15z"/>
   <path class="fil0" d="M8.55 7.3c-0.01,-0.02 -0.03,-0.15 -0.07,-0.23 -0.04,-0.07 0.11,-0.07 0.18,-0.08 0.35,-0.09 -0.11,-0.11 -0.23,-0.08 -0.18,0.03 -0.27,0.07 -0.43,0.17 -0.16,0.09 -0.18,0.27 0.14,0.11l0.09 0.18c-0.04,0.01 -0.13,0 -0.17,0l0 0.01c-0.16,0.37 0.8,0.08 0.74,-0.18l-0.01 -0.02 -0.24 0.12z"/>
   <path class="fil0" d="M7.39 9.78c0.06,-0.16 -0.23,-0.17 -0.31,-0.14 -0.11,0.04 -0.15,0.18 -0.35,0.14 -0.24,-0.04 -0.32,0.04 -0.46,0.02 -0.06,-0.01 -0.15,-0.08 -0.19,-0.04 -0.06,0.05 0.04,0.12 -0.05,0.17 -0.12,0.07 -0.11,0.31 0.11,0.08 0.05,-0.05 0.39,-0.06 0.46,-0.05 0.24,0.04 0.25,0.01 0.44,-0.07 0.09,-0.03 0.1,-0.07 0.18,-0.04 0.06,0.02 0.15,-0.02 0.17,-0.07z"/>
   <path class="fil0" d="M5.49 5.25c0.07,0.03 0.1,-0.04 0.13,0.08 0.01,0.07 0.02,0.13 0.04,0.19 0.04,0.15 0.13,0.17 0.28,0.14 0.16,-0.04 -0.05,-0.14 -0.08,-0.26 -0.03,-0.11 -0.06,-0.25 -0.09,-0.36 -0.03,-0.08 -0.08,-0.25 -0.12,-0.33 -0.08,-0.15 -0.27,-0.15 -0.25,-0.06 0,0.04 0.14,0.24 0.12,0.32 -0.01,0.03 -0.2,0.21 -0.03,0.28z"/>
   <path class="fil0" d="M8.97 5.92c0.08,-0.32 -0.99,0.17 -1.02,0.4 -0.04,0.26 0.42,-0.04 0.51,-0.09 0.11,-0.05 0.48,-0.21 0.51,-0.31z"/>
   <path class="fil0" d="M6.54 4.84c0.02,-0.08 -0.23,-0.28 -0.21,0.22 0.01,0.18 0.03,0.36 0.09,0.54 0.03,0.09 0.17,0.06 0.21,0.02 0.07,-0.07 -0.03,-0.17 -0.05,-0.22 -0.03,-0.11 -0.06,-0.46 -0.04,-0.56z"/>
   <path class="fil0" d="M7.87 4.86c0.01,0.09 0.05,0.07 0.05,0.21 -0.01,0.1 0,0.15 0.03,0.23 0.07,0.28 0.25,0.16 0.26,0.09 0,-0.04 -0.06,-0.13 -0.06,-0.2 -0.01,-0.06 -0.02,-0.16 -0.03,-0.23 -0.05,-0.3 -0.27,-0.17 -0.25,-0.1z"/>
   <path class="fil0" d="M5.14 5.35c-0.1,-0.04 -0.11,0.06 -0.17,0.03 -0.05,-0.03 -0.08,-0.07 -0.14,-0.1 -0.15,-0.05 -0.34,0.14 -0.14,0.14 0.08,0 0.16,0.15 0.29,0.18 0.19,0.04 0.23,-0.17 0.16,-0.25z"/>
   <path class="fil0" d="M8.72 7.47c0.03,-0.09 -0.22,0.13 -0.29,0.15 -0.11,0.04 -0.45,-0.09 -0.31,0.11 0.16,0.23 0.54,-0.02 0.6,-0.26z"/>
   <path class="fil0" d="M5.92 7.9c0.04,-0.14 -0.14,-0.03 -0.19,-0.01 -0.06,0.03 -0.26,0.03 -0.26,0.09 -0.01,0.09 0.39,0.15 0.45,-0.08z"/>
   <path class="fil0" d="M9.4 4.31c0.05,0.29 0.19,0.17 0.21,0.06 0.03,-0.25 -0.23,-0.23 -0.21,-0.06z"/>
   <path class="fil0" d="M8.11 1.38c0.01,0.07 0.28,0.11 0.22,-0.05 -0.02,-0.08 -0.24,-0.12 -0.22,0.05z"/>
   <path class="fil0" d="M6.47 8.46c0.01,-0.05 -0.01,-0.13 -0.07,-0.11 -0.03,0.01 -0.05,0.09 -0.08,0.12 -0.07,0.13 0.1,0.15 0.15,-0.01z"/>
  </g>
  <rect class="fil1" width="11.92" height="11.92"/>
 </g>
</svg>
