<svg width="200" height="74" viewBox="0 0 200 74" fill="none" xmlns="http://www.w3.org/2000/svg">
<g clip-path="url(#clip0_69_814)">
<path d="M164 73.0101C156.88 73.0101 149.92 70.8987 143.999 66.943C138.079 62.9873 133.465 57.3648 130.74 50.7867C128.016 44.2085 127.303 36.9702 128.692 29.9868C130.081 23.0035 133.509 16.5889 138.544 11.5542C143.579 6.51956 149.993 3.09088 156.977 1.70182C163.96 0.312748 171.198 1.02567 177.777 3.75042C184.355 6.47518 189.977 11.0894 193.933 17.0096C197.889 22.9297 200 29.89 200 37.0101C200 46.5579 196.207 55.7146 189.456 62.4659C182.705 69.2172 173.548 73.0101 164 73.0101ZM164 21.0101C160.836 21.0101 157.742 21.9485 155.111 23.7066C152.48 25.4647 150.429 27.9635 149.218 30.8872C148.007 33.8108 147.69 37.0278 148.307 40.1315C148.925 43.2352 150.449 46.0862 152.686 48.3238C154.924 50.5614 157.775 52.0853 160.879 52.7027C163.982 53.32 167.199 53.0032 170.123 51.7922C173.047 50.5812 175.545 48.5304 177.304 45.8992C179.062 43.268 180 40.1746 180 37.0101C180 32.7666 178.314 28.697 175.314 25.6964C172.313 22.6958 168.243 21.0101 164 21.0101Z" fill="black"/>
<path d="M164 5.01007C170.329 5.01007 176.516 6.88684 181.778 10.403C187.041 13.9193 191.142 18.917 193.564 24.7642C195.986 30.6114 196.62 37.0456 195.385 43.253C194.15 49.4604 191.103 55.1622 186.627 59.6375C182.152 64.1128 176.45 67.1605 170.243 68.3952C164.036 69.6299 157.601 68.9962 151.754 66.5742C145.907 64.1522 140.909 60.0507 137.393 54.7883C133.877 49.5259 132 43.3391 132 37.0101C132 28.5231 135.371 20.3838 141.373 14.3827C147.374 8.38149 155.513 5.01007 164 5.01007ZM164 57.0101C167.956 57.0101 171.822 55.8371 175.111 53.6395C178.4 51.4418 180.964 48.3183 182.478 44.6637C183.991 41.0092 184.387 36.9879 183.616 33.1083C182.844 29.2286 180.939 25.665 178.142 22.8679C175.345 20.0709 171.781 18.1661 167.902 17.3944C164.022 16.6227 160.001 17.0187 156.346 18.5325C152.692 20.0462 149.568 22.6097 147.371 25.8987C145.173 29.1876 144 33.0544 144 37.0101C144 42.3144 146.107 47.4015 149.858 51.1522C153.609 54.9029 158.696 57.0101 164 57.0101ZM164 3.01007C157.275 3.01007 150.702 5.00414 145.111 8.7401C139.519 12.4761 135.161 17.7861 132.588 23.9988C130.015 30.2115 129.341 37.0478 130.653 43.6431C131.965 50.2385 135.203 56.2967 139.958 61.0517C144.713 65.8067 150.772 69.0449 157.367 70.3568C163.962 71.6687 170.799 70.9954 177.011 68.422C183.224 65.8486 188.534 61.4907 192.27 55.8995C196.006 50.3082 198 43.7346 198 37.0101C197.989 27.996 194.404 19.3541 188.03 12.9801C181.656 6.60619 173.014 3.02066 164 3.01007ZM164 55.0101C160.44 55.0101 156.96 53.9544 154 51.9765C151.04 49.9987 148.733 47.1874 147.37 43.8984C146.008 40.6093 145.651 36.9901 146.346 33.4984C147.04 30.0068 148.755 26.7995 151.272 24.2822C153.789 21.7648 156.997 20.0505 160.488 19.3559C163.98 18.6614 167.599 19.0179 170.888 20.3802C174.177 21.7426 176.989 24.0497 178.966 27.0098C180.944 29.9699 182 33.45 182 37.0101C181.989 41.7807 180.09 46.353 176.716 49.7263C173.343 53.0997 168.771 54.9995 164 55.0101Z" fill="white"/>
<path d="M112 73.01C110.546 73.0134 109.119 72.6204 107.871 71.8734C106.624 71.1263 105.603 70.0534 104.92 68.77C97.9711 72.4701 90.0008 73.7904 82.2299 72.5285C74.4591 71.2667 67.316 67.4923 61.8949 61.7836C56.4738 56.0748 53.0735 48.7463 52.2148 40.9206C51.3561 33.0949 53.0864 25.2035 57.1406 18.455C61.1948 11.7065 67.3494 6.473 74.6618 3.55611C81.9741 0.639228 90.041 0.199766 97.627 2.30504C105.213 4.41031 111.9 8.94424 116.663 15.2124C121.426 21.4805 124.004 29.1373 124 37.01V65.01C124 67.1317 123.157 69.1665 121.657 70.6668C120.157 72.1671 118.122 73.01 116 73.01H112ZM88 21.01C84.8355 21.01 81.7421 21.9483 79.1109 23.7064C76.4797 25.4646 74.429 27.9634 73.218 30.887C72.007 33.8106 71.6901 37.0277 72.3075 40.1314C72.9248 43.2351 74.4487 46.086 76.6863 48.3237C78.924 50.5613 81.7749 52.0852 84.8786 52.7025C87.9823 53.3199 91.1994 53.003 94.123 51.792C97.0466 50.581 99.5455 48.5303 101.304 45.8991C103.062 43.2679 104 40.1745 104 37.01C104 32.7665 102.314 28.6968 99.3137 25.6963C96.3132 22.6957 92.2435 21.01 88 21.01Z" fill="black"/>
<path d="M87.9996 5.00996C96.4866 5.00996 104.626 8.38137 110.627 14.3825C116.628 20.3837 120 28.523 120 37.01V65.01C120 66.0708 119.578 67.0882 118.828 67.8384C118.078 68.5885 117.06 69.01 116 69.01H112C110.939 69.01 109.921 68.5885 109.171 67.8384C108.421 67.0882 108 66.0708 108 65.01V61.97C104.009 65.1712 99.3099 67.3692 94.295 68.3796C89.2802 69.39 84.0961 69.1833 79.1776 67.777C74.2591 66.3706 69.7494 63.8056 66.0266 60.2969C62.3039 56.7882 59.4766 52.4381 57.7818 47.6114C56.087 42.7846 55.5742 37.6219 56.2862 32.5561C56.9982 27.4902 58.9143 22.6689 61.874 18.4963C64.8337 14.3238 68.7505 10.9216 73.2962 8.57506C77.842 6.22851 82.884 5.00597 87.9996 5.00996ZM87.9996 57.01C91.9553 57.01 95.8221 55.837 99.111 53.6394C102.4 51.4417 104.963 48.3181 106.477 44.6636C107.991 41.0091 108.387 36.9878 107.615 33.1081C106.844 29.2285 104.939 25.6649 102.142 22.8678C99.3447 20.0708 95.7811 18.166 91.9014 17.3942C88.0218 16.6225 84.0005 17.0186 80.346 18.5324C76.6914 20.0461 73.5679 22.6096 71.3702 25.8986C69.1726 29.1875 67.9996 33.0543 67.9996 37.01C67.9996 42.3143 70.1068 47.4014 73.8575 51.1521C77.6082 54.9028 82.6953 57.01 87.9996 57.01ZM87.9996 3.00996C82.7245 2.99532 77.5184 4.20831 72.793 6.55299C68.0676 8.89766 63.9526 12.3097 60.7735 16.5192C57.5943 20.7287 55.4383 25.6202 54.4759 30.8068C53.5135 35.9934 53.7711 41.3328 55.2284 46.4026C56.6857 51.4724 59.3027 56.1336 62.8724 60.0175C66.442 63.9014 70.8664 66.9014 75.7956 68.7802C80.7248 70.659 86.0235 71.3651 91.2727 70.8427C96.5219 70.3202 101.577 68.5835 106.04 65.77C106.233 67.2158 106.943 68.543 108.038 69.5061C109.134 70.4693 110.541 71.0035 112 71.01H116C117.591 71.01 119.117 70.3778 120.242 69.2526C121.367 68.1274 122 66.6013 122 65.01V37.01C121.989 27.9958 118.404 19.354 112.03 12.98C105.656 6.60608 97.0137 3.02054 87.9996 3.00996ZM87.9996 55.01C84.4396 55.01 80.9595 53.9543 77.9994 51.9764C75.0393 49.9985 72.7322 47.1873 71.3698 43.8983C70.0074 40.6092 69.651 36.99 70.3455 33.4983C71.04 30.0067 72.7544 26.7994 75.2717 24.282C77.7891 21.7647 80.9963 20.0504 84.488 19.3558C87.9797 18.6613 91.5989 19.0178 94.8879 20.3801C98.177 21.7425 100.988 24.0496 102.966 27.0097C104.944 29.9698 106 33.4499 106 37.01C105.989 41.7806 104.089 46.3528 100.716 49.7262C97.3425 53.0996 92.7703 54.9994 87.9996 55.01Z" fill="white"/>
<path d="M36 73.0101C33.8783 73.0101 31.8434 72.1672 30.3431 70.6669C28.8429 69.1666 28 67.1318 28 65.0101V21.0101H8C5.87827 21.0101 3.84344 20.1672 2.34315 18.6669C0.842854 17.1666 0 15.1318 0 13.0101V9.01007C0 6.88834 0.842854 4.85351 2.34315 3.35322C3.84344 1.85293 5.87827 1.01007 8 1.01007H28C33.3043 1.01007 38.3914 3.11721 42.1421 6.86794C45.8929 10.6187 48 15.7057 48 21.0101V65.0101C48 67.1318 47.1571 69.1666 45.6569 70.6669C44.1566 72.1672 42.1217 73.0101 40 73.0101H36Z" fill="black"/>
<path d="M28 5.01007C32.2435 5.01007 36.3131 6.69578 39.3137 9.69637C42.3143 12.6969 44 16.7666 44 21.0101V65.0101C44 66.0709 43.5786 67.0884 42.8284 67.8385C42.0783 68.5886 41.0609 69.0101 40 69.0101H36C34.9391 69.0101 33.9217 68.5886 33.1716 67.8385C32.4214 67.0884 32 66.0709 32 65.0101V21.0101C32 19.9492 31.5786 18.9318 30.8284 18.1816C30.0783 17.4315 29.0609 17.0101 28 17.0101H8C6.93913 17.0101 5.92172 16.5886 5.17157 15.8385C4.42143 15.0884 4 14.0709 4 13.0101V9.01007C4 7.9492 4.42143 6.93179 5.17157 6.18164C5.92172 5.4315 6.93913 5.01007 8 5.01007H28ZM28 3.01007H8C6.4087 3.01007 4.88258 3.64221 3.75736 4.76743C2.63214 5.89265 2 7.41877 2 9.01007V13.0101C2 14.6014 2.63214 16.1275 3.75736 17.2527C4.88258 18.3779 6.4087 19.0101 8 19.0101H28C28.5304 19.0101 29.0391 19.2208 29.4142 19.5959C29.7893 19.9709 30 20.4796 30 21.0101V65.0101C30 66.6014 30.6321 68.1275 31.7574 69.2527C32.8826 70.3779 34.4087 71.0101 36 71.0101H40C41.5913 71.0101 43.1174 70.3779 44.2426 69.2527C45.3679 68.1275 46 66.6014 46 65.0101V21.0101C45.9894 16.2394 44.0896 11.6672 40.7162 8.29382C37.3429 4.92046 32.7706 3.02064 28 3.01007Z" fill="white"/>
</g>
<defs>
<clipPath id="clip0_69_814">
<rect width="200" height="74" fill="white"/>
</clipPath>
</defs>
</svg>
